<?xml version="1.0" encoding="UTF-8"?>
<svg width="128pt" height="128pt" version="1.1" viewBox="0 0 128 128" xmlns="http://www.w3.org/2000/svg">
 <g fill="#fff">
  <path d="m106.5 122.05h-93.781c-6.1992 0-11.234-5.0352-11.234-11.234v-93.215c0-6.1992 5.0352-11.234 11.234-11.234h93.781c6.1992 0 11.234 5.0352 11.234 11.234v82.09c0 0.79688-0.625 1.4219-1.4219 1.4219s-1.4219-0.625-1.4219-1.4219v-82.09c0-4.6367-3.7539-8.3906-8.3906-8.3906h-93.781c-4.6367 0-8.3906 3.7539-8.3906 8.3906v93.211c0 4.6367 3.7539 8.3906 8.3906 8.3906h93.781c3.5273 0 6.7109-2.2461 7.9062-5.5742 0.25781-0.73828 1.082-1.1367 1.8203-0.85156 0.73828 0.25781 1.1367 1.082 0.85156 1.8203-1.5898 4.4688-5.8555 7.4531-10.578 7.4531z"/>
  <path d="m116.31 29.07h-113.41c-0.79688 0-1.4219-0.625-1.4219-1.4219 0-0.79688 0.625-1.4219 1.4219-1.4219h113.41c0.79688 0 1.4219 0.625 1.4219 1.4219 0 0.79687-0.65234 1.4219-1.4219 1.4219z"/>
  <path d="m20.508 22.871c-2.8438 0-5.1484-2.3047-5.1484-5.1484s2.3047-5.1484 5.1484-5.1484 5.1484 2.3047 5.1484 5.1484-2.3047 5.1484-5.1484 5.1484zm0-7.4531c-1.2812 0-2.3047 1.0234-2.3047 2.3047s1.0234 2.3047 2.3047 2.3047 2.3047-1.0234 2.3047-2.3047-1.0508-2.3047-2.3047-2.3047z"/>
  <path d="m34.246 22.871c-2.8438 0-5.1484-2.3047-5.1484-5.1484s2.3047-5.1484 5.1484-5.1484 5.1484 2.3047 5.1484 5.1484-2.3047 5.1484-5.1484 5.1484zm0-7.4531c-1.2812 0-2.3047 1.0234-2.3047 2.3047s1.0234 2.3047 2.3047 2.3047 2.3047-1.0234 2.3047-2.3047-1.0234-2.3047-2.3047-2.3047z"/>
  <path d="m47.984 22.871c-2.8438 0-5.1484-2.3047-5.1484-5.1484s2.3047-5.1484 5.1484-5.1484 5.1484 2.3047 5.1484 5.1484-2.3008 5.1484-5.1484 5.1484zm0-7.4531c-1.2812 0-2.3047 1.0234-2.3047 2.3047s1.0234 2.3047 2.3047 2.3047 2.3047-1.0234 2.3047-2.3047-1.0234-2.3047-2.3047-2.3047z"/>
  <path d="m50.117 99.84c-5.2344 0-10.523-1.3359-15.387-4.125-14.734-8.5039-19.797-27.422-11.293-42.156s27.422-19.797 42.156-11.293c7.1406 4.125 12.258 10.781 14.395 18.746 2.1328 7.9648 1.0508 16.27-3.0703 23.41-5.7227 9.8711-16.133 15.418-26.801 15.418zm-24.203-44.855c-7.7383 13.367-3.1289 30.551 10.27 38.285 13.367 7.7383 30.551 3.1289 38.285-10.27 3.7539-6.4844 4.7227-14.023 2.7891-21.246-1.9336-7.2266-6.5703-13.285-13.055-17.012-13.402-7.7344-30.582-3.1562-38.289 10.242z"/>
  <path d="m118.95 116.68c-0.91016 0-1.8477-0.22656-2.6719-0.68359l-46.051-24.859c-0.68359-0.37109-0.9375-1.2227-0.57031-1.9336 0.37109-0.68359 1.2227-0.9375 1.9336-0.57031l46.023 24.859c1.3945 0.73828 3.1562 0.22656 3.9805-1.168l1.8203-3.1562c0.79688-1.3945 0.37109-3.2148-0.96875-4.0391l-44.543-27.449c-0.68359-0.39844-0.88281-1.2812-0.45703-1.9609 0.42578-0.68359 1.2812-0.88281 1.9609-0.45703l44.543 27.449c2.6445 1.6211 3.5 5.1484 1.9336 7.8789l-1.8203 3.1562c-1.1016 1.8789-3.0938 2.9336-5.1133 2.9336z"/>
  <path d="m62.465 84.734h-24.633c-2.7578 0-5.1211-1.3672-6.4844-3.7539-1.3672-2.3906-1.3672-5.1211 0-7.5078l12.316-21.332c1.3672-2.3906 3.7539-3.7539 6.4844-3.7539 2.7578 0 5.1211 1.3672 6.4844 3.7539l12.316 21.332c1.3672 2.3906 1.3672 5.1211 0 7.5078-1.3633 2.3906-3.7266 3.7539-6.4844 3.7539zm-12.289-33.477c-1.7344 0-3.1562 0.82422-4.0391 2.332l-12.316 21.332c-0.85156 1.5078-0.85156 3.1562 0 4.6641 0.85156 1.5078 2.3047 2.332 4.0391 2.332h24.633c1.7344 0 3.1562-0.82422 4.0391-2.332 0.85156-1.5078 0.85156-3.1562 0-4.6641l-12.316-21.332c-0.88281-1.5078-2.332-2.332-4.0391-2.332z"/>
  <path d="m56.121 76.629c-0.37109 0-0.73828-0.14062-0.99609-0.42578l-11.891-11.891c-0.57031-0.57031-0.57031-1.4492 0-2.0195 0.57031-0.57031 1.4492-0.57031 2.0195 0l11.891 11.891c0.57031 0.57031 0.57031 1.4492 0 2.0195-0.3125 0.28516-0.65234 0.42578-1.0234 0.42578z"/>
  <path d="m44.203 76.629c-0.37109 0-0.73828-0.14062-0.99609-0.42578-0.57031-0.57031-0.57031-1.4492 0-2.0195l11.891-11.891c0.57031-0.57031 1.4492-0.57031 2.0195 0 0.57031 0.57031 0.57031 1.4492 0 2.0195l-11.891 11.891c-0.28516 0.28516-0.65234 0.42578-1.0234 0.42578z"/>
 </g>
</svg>
