<?xml version="1.0" encoding="UTF-8"?>
<svg width="100pt" height="100pt" version="1.1" viewBox="0 0 100 100" xmlns="http://www.w3.org/2000/svg">
 <g fill="#fff">
  <path d="m23.625 71.539c-3.4062 1.5391-5.2734 6.1523-6.2656 9.5586-1.5391 4.8359-2.418 11.758 0.10938 16.375 1.207 2.1992 4.5039 1.0977 4.5039-1.207 0-4.1758-1.0977-7.9102-0.10938-12.199 0.55078-2.6367 1.5391-4.9453 2.9688-7.1445 1.207 1.8672 3.0781 3.1875 5.3828 3.625 3.957 0.76953 8.2422-1.0977 11.648-2.9688 3.625-2.0898 6.9219-4.9453 9.6719-8.1328 2.9688-3.4062 5.1641-7.4727 8.1328-10.77 1.0977-1.207 3.4062-3.2969 5.1641-1.9766 1.7578 1.3203 0 5.6055-0.55078 7.1445-1.6484 4.5039-4.2852 8.4609-7.582 11.977-7.1445 7.582-16.484 11.32-25.496 15.934-1.7578 0.87891-0.55078 3.5156 1.3203 3.0781 5.2734-1.3203 10.551-3.4062 15.383-6.1523 3.1875 3.4062 9.1211 4.9453 13.406 5.7148 2.6367 0.44141 3.8477-3.625 1.0977-4.0664-2.418-0.44141-4.9453-0.98828-7.2539-1.7578-1.4297-0.44141-2.7461-1.207-4.0664-1.7578 2.7461-1.8672 5.2734-3.8477 7.582-6.043 0.87891 0.55078 1.7578 0.98828 2.7461 1.4297 1.7578 0.76953 4.5039 1.7578 6.1523 0.55078 0.98828-0.66016 1.3203-2.0898 0.32813-2.9688-1.3203-1.207-3.2969-1.0977-4.9453-1.5391-0.55078-0.10938 0.66016-0.44141 1.7578-0.98828 1.7578-0.87891 3.4062-1.8672 5.0547-2.8555 0.87891 1.0977 1.9766 1.9766 2.7461 3.2969 1.3203 2.0898 1.6484 4.5039 1.7578 6.9219 0.21875 4.1758-0.98828 8.793 0.10938 12.855 0.66016 2.1992 3.8477 2.1992 4.3945 0 0.87891-2.8555 0.44141-6.043 0.32812-9.0117 0-2.8555-0.10937-5.9336-0.87891-8.6797-0.76953-2.6367-2.9688-6.1523-5.8242-7.0312 2.9688-2.1992 5.7148-4.7266 8.0234-7.6914 4.3945-5.7148 6.2656-13.078 6.8125-20.109 1.3203-14.504-2.3086-29.23-15.164-37.473-12.09-7.8008-28.352-8.0234-41.098-1.8672-12.969 6.375-17.801 21.758-18.023 35.273-0.3125 9.2266 1.2266 25.16 10.676 30.656zm19.453-1.5391c-0.55078 0.44141-2.0898 1.5391-4.0664 2.5273 0-0.66016-4.6172-7.6914-5.6055-10.879-0.55078-1.7578-1.6484-7.6914 1.7578-7.3633 1.9766 0.21875 4.2852 5.3828 5.2734 7.0312 1.4297 2.418 2.3086 5.1641 4.1758 7.3633-0.54688 0.44141-0.98828 0.87891-1.5352 1.3203zm-14.508-57.254c4.3984-4.0664 11.648-6.1523 17.582-6.5938 6.2656-0.44141 12.855 0.66016 18.57 3.2969 5.0547 2.3086 9.6719 6.043 12.527 10.77 3.4062 5.4961 4.0664 11.977 4.1758 18.242 0.10938 6.9219-0.87891 14.836-4.6172 20.77-2.1992 3.5156-5.6055 6.7031-9.4492 8.9023v-0.10937c1.5391-3.4062 3.625-8.4609 2.5273-12.199-0.98828-3.4062-4.3945-5.0547-7.8008-4.7266-4.2852 0.55078-6.9219 4.1758-9.1211 7.3633-1.6484 2.3086-3.4062 4.6172-5.2734 6.8125-0.87891-4.1758-3.5156-9.0117-5.6055-12.09-2.418-3.7344-6.1523-6.2656-10.551-3.8477-10 5.2734-2.418 19.34 2.5273 25.273l0.10938 0.10938c-2.7461 0.87891-5.0547 0.76953-5.0547-1.9766 0-0.21875 0.10937-1.3203-0.32813-1.6484-7.582-6.1523-10-15.055-10.77-24.504-0.98828-11.754 1.3203-25.383 10.551-33.844z"/>
  <path d="m37.582 40c1.0977-2.0898 0.66016-4.3945 0.76953-6.7031 0.10938-2.0898 0.32813-4.2852-0.21875-6.375-0.55078-2.0898-3.7344-2.6367-4.8359-0.66016-1.0977 2.0898-1.3203 4.3945-1.5391 6.7031-0.21875 2.418-0.66016 4.7266 0.44141 6.9219 1.0977 2.0898 4.3945 2.0898 5.3828 0.11328z"/>
  <path d="m64.945 40c1.0977-2.0898 0.66016-4.3945 0.76953-6.7031 0.10938-2.0898 0.32812-4.2852-0.21875-6.375-0.55078-2.0898-3.7344-2.6367-4.8359-0.66016-1.0977 2.0898-1.3203 4.3945-1.5391 6.7031-0.21875 2.418-0.66016 4.7266 0.44141 6.9219 0.98828 2.0898 4.2852 2.0898 5.3828 0.11328z"/>
 </g>
</svg>
