<?xml version="1.0" encoding="UTF-8"?>
<svg width="100pt" height="100pt" version="1.1" viewBox="0 0 100 100" xmlns="http://www.w3.org/2000/svg">
 <g fill="#fff">
  <path d="m15.055 95.824c3.1875 0.32812 6.375 0 9.5586-0.10938 4.0664-0.10938 8.2422-0.98828 11.758 1.207 2.1992 1.4297 4.1758 2.418 6.8125 1.5391 2.6367-0.87891 4.3945-3.0781 5.2734-5.6055 0.21875-0.55078 0.32812-1.0977 0.55078-1.6484 0.44141 1.5391 0.98828 3.0781 1.8672 4.3945 3.0781 5.0547 7.1445 2.7461 11.207 0.44141 3.0781-1.7578 6.7031-0.98828 10.109-0.87891 3.5156 0 7.1445-0.21875 10.66-0.66016 4.9453-0.66016 9.8906-1.5391 11.758-6.9219 1.8672-5.4961 1.8672-12.199-1.9766-16.812-1.9766-2.418-4.5039-4.0664-6.5938-6.375-1.6484-1.7578-3.0781-3.8477-4.1758-6.043 1.3203-3.2969 2.1992-6.9219 2.6367-10.551 1.6484-13.848-1.8672-30-13.188-39.012-9.7734-7.6914-23.18-9.4492-34.609-4.0625-12.309 5.9336-19.34 18.02-20.109 31.316-0.44141 6.9219-0.10938 14.395 2.3086 20.988-3.8477 3.8477-8.793 6.4844-12.09 10.77-3.8477 4.8359-4.3945 11.098-3.2969 17.031 1.2109 6.375 5.0547 10.332 11.539 10.992zm67.691-29.781c3.2969 3.957 8.6797 6.1523 9.5586 11.758 0.44141 2.6367 0 5.2734-0.87891 7.8008-1.207 3.2969-3.625 4.0664-6.8125 4.6172-5.9336 0.98828-11.648 0.66016-17.582 0.66016-1.9766 0-4.0664 0.21875-5.8242 1.0977-0.76953 0.44141-1.5391 0.98828-2.1992 1.5391-1.3203 0.98828-1.0977 0.98828-2.9688 0.66016-1.9766-0.32812-1.8672-0.44141-2.5273-1.9766-2.3047-5.0547-1.8633-11.102-1.5352-16.375 0.10938-2.418 0.32813-4.8359 0.66016-7.2539 0.32812-2.3086 0.21875-7.0312 1.6484-9.0117 0.98828-1.3203 1.207-0.21875 1.8672 0.98828s1.0977 2.6367 1.5391 3.8477c0.76953 2.1992 1.5391 4.3945 2.418 6.5938 1.0977 2.5273 2.418 4.9453 3.7344 7.3633 0.76953 1.4297 1.7578 1.9766 3.2969 2.3086 2.7461 0.44141 5.7148 0.44141 8.4609 0.44141 2.1992 0 4.8359 0.10938 6.7031-1.0977 1.4297-0.87891 0.21875-2.9688-1.3203-2.1992-2.7461 1.3203-8.4609 0.44141-11.32 0-1.5391-0.21875-2.0898-0.32813-2.8555-1.5391-0.10938-0.21875-0.21875-0.44141-0.32812-0.55078 6.043-2.8555 10.66-7.582 13.734-13.188 0.66406 1.207 1.543 2.418 2.5312 3.5156zm-48.02-54.066c9.0078-6.2617 20.547-6.9219 30.109-1.4258 11.32 6.4844 14.617 18.352 15.055 30.66 0.44141 11.648-4.5039 25.055-15.934 29.891-1.0977-2.418-1.9766-5.0547-2.8555-7.582-0.87891-2.3086-1.6484-5.4961-3.5156-7.1445-3.4062-3.1875-6.5938 0.55078-7.3633 3.957-0.10938 0.44141-0.21875 0.87891-0.32812 1.3203-0.44141-1.8672-1.0977-3.625-2.1992-4.9453-2.9688-3.7344-7.4727 0.66016-9.1211 3.5156-1.6484 2.9688-2.418 6.2656-3.1875 9.4492-0.10938 0.44141-0.21875 0.98828-0.32812 1.5391-3.4062-3.1875-6.2656-6.5938-8.793-10.551-3.2969-5.3828-4.3945-11.207-4.5039-17.473-0.11328-12.199 2.5234-23.848 12.965-31.211zm-24.617 58.902c2.8555-3.8477 7.1445-6.375 10.77-9.4492 2.8555 5.3828 7.2539 11.539 13.297 13.516-0.55078 1.4297-1.3203 2.7461-2.418 3.1875-3.7344 1.6484-9.8906 0.76953-11.32-3.5156-0.55078-1.6484-3.0781-0.98828-2.5273 0.66016 1.6484 5.9336 9.0117 7.8008 14.504 6.7031 8.5703-1.6484 7.0312-16.922 10.988-22.746 0.87891-1.3203 1.9766-2.7461 3.2969-0.98828 0.76953 0.87891 0.87891 2.8555 0.98828 3.957 0.32812 3.0781 0 6.2656-0.21875 9.3398-0.44141 5.9336-0.76953 12.418-2.418 18.242-0.44141 1.5391-1.0977 3.625-2.6367 4.3945-1.6484 0.76953-2.8555-0.32813-4.1758-1.207-2.418-1.6484-4.9453-1.8672-7.9102-1.8672-2.9688 0.10938-5.9336 0.21875-8.9023 0.32812-3.0781 0.10938-6.5938 0.44141-9.3398-0.87891-6.3711-3.082-5.4922-14.84-1.9766-19.676z"/>
  <path d="m34.617 46.375c0.66016 0.32812 1.8672 1.207 1.9766 1.207-0.66016 0.44141-1.4297 0.87891-1.9766 1.3203-1.0977 0.87891-2.0898 1.6484-2.9688 2.7461-1.4297 1.8672 1.207 3.625 2.8555 2.8555 1.8672-0.87891 3.5156-2.6367 5.1641-3.957 1.207-0.98828 2.8555-2.0898 2.1992-3.957-0.55078-1.4297-2.3086-2.1992-3.625-2.9688-1.6484-0.98828-3.5156-2.3086-5.4961-2.6367-1.6484-0.32812-3.1875 1.7578-1.7578 3.0781 1.1016 0.99219 2.3086 1.543 3.6289 2.3125z"/>
  <path d="m60.77 50.328c1.7578 1.4297 3.4062 3.2969 5.4961 4.2852 1.6484 0.76953 4.1758-0.98828 2.8555-2.8555-0.87891-1.0977-1.8672-1.8672-2.9688-2.7461-0.55078-0.44141-1.207-0.87891-1.9766-1.3203 0.66016-0.44141 1.3203-0.87891 1.9766-1.207 1.207-0.76953 2.5273-1.4297 3.625-2.418 1.4297-1.3203-0.10938-3.4062-1.7578-3.0781-1.8672 0.44141-3.625 1.5391-5.2734 2.5273-1.3203 0.76953-3.2969 1.6484-3.8477 3.1875-0.65625 1.6484 0.66016 2.6367 1.8711 3.625z"/>
 </g>
</svg>
