<svg width="129" height="129" viewBox="0 0 129 129" fill="none" xmlns="http://www.w3.org/2000/svg">
<g id="Frame" clip-path="url(#clip0_5174_8593)">
<path id="Vector" fill-rule="evenodd" clip-rule="evenodd" d="M128.188 20.608L122.612 26.191C121.553 27.252 119.836 27.252 118.776 26.191L103.788 11.185C102.729 10.124 102.729 8.40504 103.788 7.34404L109.364 1.76104C110.424 0.701039 112.141 0.701039 113.2 1.76104L128.188 16.768C129.247 17.828 129.247 19.548 128.188 20.608ZM125.1 68C125.1 101.689 98.6887 128.1 64.0997 128.1C31.3107 128.1 3.09967 101.689 3.09967 68C3.09967 34.311 31.3107 7.00004 64.0997 7.00004C98.6887 7.00004 125.1 34.311 125.1 68ZM64.7327 16.233C36.2907 16.233 13.2327 39.291 13.2327 67.733C13.2327 96.176 36.2907 119.233 64.7327 119.233C93.1757 119.233 116.233 96.176 116.233 67.733C116.233 39.291 93.1757 16.233 64.7327 16.233ZM85.7977 66.874L83.7247 68.212C82.3197 69.148 81.9187 70.084 81.9187 71.556V72.893C81.9187 76.371 79.7787 78.31 76.4347 78.31C73.0907 78.31 70.9507 76.371 70.9507 72.893V70.954C70.9507 65.871 72.0207 63.932 76.3007 61.256L78.5747 59.852C81.6517 57.979 83.6577 55.772 83.6577 53.164C83.6577 50.422 81.4507 47.948 77.5717 47.948C73.8267 47.948 71.5527 49.754 70.5497 52.964C69.7467 55.639 66.9387 56.776 64.1297 55.906C61.5207 55.104 60.0497 52.964 60.5847 50.088C61.8557 43.333 68.2087 37.916 76.8357 37.916C87.6697 37.916 94.7587 43.935 94.7587 53.231C94.7587 59.585 91.0807 63.463 85.7977 66.874ZM48.0667 96.501C44.3887 96.501 41.3127 93.424 41.3127 89.746C41.3127 86.068 44.3887 82.992 48.0667 82.992C51.7457 82.992 54.8217 86.068 54.8217 89.746C54.8217 93.424 51.7457 96.501 48.0667 96.501ZM48.0667 78.31C45.3917 78.31 42.8507 76.772 42.7167 73.294L41.3127 44.27C41.1787 40.792 44.0547 37.916 48.0667 37.916C52.0797 37.916 54.9557 40.792 54.8217 44.27L53.4177 73.294C53.2837 76.772 50.7427 78.31 48.0667 78.31ZM76.4347 82.992C80.1127 82.992 83.1897 86.068 83.1897 89.746C83.1897 93.424 80.1127 96.501 76.4347 96.501C72.7567 96.501 69.6807 93.424 69.6807 89.746C69.6807 86.068 72.7567 82.992 76.4347 82.992ZM11.3697 26.963C10.3287 28.004 8.63967 28.004 7.59867 26.963L1.70067 21.065C0.659672 20.024 0.659672 18.335 1.70067 17.294L17.2677 1.72704C18.3087 0.686039 19.9977 0.686039 21.0387 1.72704L26.9367 7.62504C27.9777 8.66604 27.9777 10.355 26.9367 11.396L11.3697 26.963Z" fill="#FD3C75"/>
<path id="Vector_2" d="M128.188 20.608L122.612 26.191C121.553 27.252 119.836 27.252 118.776 26.191L103.788 11.185C102.729 10.124 102.729 8.40504 103.788 7.34404L109.364 1.76104C110.424 0.701039 112.141 0.701039 113.2 1.76104L128.188 16.768C129.247 17.828 129.247 19.548 128.188 20.608ZM125.1 68C125.1 101.689 98.6887 128.1 64.0997 128.1C31.3107 128.1 3.09967 101.689 3.09967 68C3.09967 34.311 31.3107 7.00004 64.0997 7.00004C98.6887 7.00004 125.1 34.311 125.1 68ZM64.7327 16.233C36.2907 16.233 13.2327 39.291 13.2327 67.733C13.2327 96.176 36.2907 119.233 64.7327 119.233C93.1757 119.233 116.233 96.176 116.233 67.733C116.233 39.291 93.1757 16.233 64.7327 16.233ZM85.7977 66.874L83.7247 68.212C82.3197 69.148 81.9187 70.084 81.9187 71.556V72.893C81.9187 76.371 79.7787 78.31 76.4347 78.31C73.0907 78.31 70.9507 76.371 70.9507 72.893V70.954C70.9507 65.871 72.0207 63.932 76.3007 61.256L78.5747 59.852C81.6517 57.979 83.6577 55.772 83.6577 53.164C83.6577 50.422 81.4507 47.948 77.5717 47.948C73.8267 47.948 71.5527 49.754 70.5497 52.964C69.7467 55.639 66.9387 56.776 64.1297 55.906C61.5207 55.104 60.0497 52.964 60.5847 50.088C61.8557 43.333 68.2087 37.916 76.8357 37.916C87.6697 37.916 94.7587 43.935 94.7587 53.231C94.7587 59.585 91.0807 63.463 85.7977 66.874ZM48.0667 96.501C44.3887 96.501 41.3127 93.424 41.3127 89.746C41.3127 86.068 44.3887 82.992 48.0667 82.992C51.7457 82.992 54.8217 86.068 54.8217 89.746C54.8217 93.424 51.7457 96.501 48.0667 96.501ZM48.0667 78.31C45.3917 78.31 42.8507 76.772 42.7167 73.294L41.3127 44.27C41.1787 40.792 44.0547 37.916 48.0667 37.916C52.0797 37.916 54.9557 40.792 54.8217 44.27L53.4177 73.294C53.2837 76.772 50.7427 78.31 48.0667 78.31ZM76.4347 82.992C80.1127 82.992 83.1897 86.068 83.1897 89.746C83.1897 93.424 80.1127 96.501 76.4347 96.501C72.7567 96.501 69.6807 93.424 69.6807 89.746C69.6807 86.068 72.7567 82.992 76.4347 82.992ZM11.3697 26.963C10.3287 28.004 8.63967 28.004 7.59867 26.963L1.70067 21.065C0.659672 20.024 0.659672 18.335 1.70067 17.294L17.2677 1.72704C18.3087 0.686039 19.9977 0.686039 21.0387 1.72704L26.9367 7.62504C27.9777 8.66604 27.9777 10.355 26.9367 11.396L11.3697 26.963Z" fill="url(#paint0_linear_5174_8593)"/>
</g>
<defs>
<linearGradient id="paint0_linear_5174_8593" x1="0.919922" y1="0.946289" x2="6335.9" y2="11051.9" gradientUnits="userSpaceOnUse">
<stop stop-color="#FD3C75" stop-opacity="0"/>
<stop offset="1" stop-color="#EF7F6D"/>
</linearGradient>
<clipPath id="clip0_5174_8593">
<rect width="129" height="129" fill="white"/>
</clipPath>
</defs>
</svg>
