<?xml version="1.0" encoding="UTF-8"?>
<svg width="100pt" height="100pt" version="1.1" viewBox="0 0 100 100" xmlns="http://www.w3.org/2000/svg">
 <path d="m82.352 32.352h-44.703l13.586-13.469c2.3086-2.3086 2.3086-6.0469 0-8.3516-2.3047-2.3086-6.0469-2.3086-8.3516 0l-23.531 23.531v-0.003906c-2.2812 2.293-2.2812 6 0 8.293l23.531 23.531c2.2891 2.3047 6.0156 2.3203 8.3242 0.027344 2.3047-2.2891 2.3203-6.0156 0.027344-8.3203l-13.586-13.473h44.703c1.6133 0 3.1562 0.66016 4.2695 1.8242 1.1094 1.168 1.6953 2.7422 1.6133 4.3516v23.238c0 1.5586-0.61719 3.0547-1.7227 4.1562-1.1016 1.1055-2.5977 1.7227-4.1602 1.7227h-76.469c-3.25 0-5.8828 2.6367-5.8828 5.8828 0 3.25 2.6328 5.8828 5.8828 5.8828h76.469c4.6836 0 9.1719-1.8594 12.48-5.168 3.3086-3.3086 5.168-7.7969 5.168-12.477v-23.238c0.078125-4.7305-1.7461-9.293-5.0625-12.668-3.3203-3.375-7.8516-5.2734-12.586-5.2734z" fill="#f54d8b"/>
</svg>
