<?xml version="1.0" encoding="UTF-8"?>
<svg width="100pt" height="100pt" version="1.1" viewBox="0 0 100 100" xmlns="http://www.w3.org/2000/svg">
 <path d="m50.121 48.781c0 0.64844-0.52344 1.1758-1.1719 1.1758-0.64453 0-1.1719-0.51953-1.1719-1.1758 0-0.64453 0.52734-1.1719 1.1719-1.1719 0.64844 0 1.1719 0.52734 1.1719 1.1719zm-8.293-24.949c1.8086-2.0391 4.4023-3.207 7.1211-3.207 5.25 0 9.5156 4.2695 9.5156 9.5156 0 4.0586-2.5742 7.6758-6.4102 8.9961-1.1953 0.41016-1.9375 1.4531-1.9375 2.7148l0.003906 2.1562c0 0.64844-0.52344 1.1719-1.1719 1.1719-0.64453 0-1.1719-0.52344-1.1719-1.1719v-2.1562c0-2.2578 1.3789-4.1914 3.5156-4.9297 2.8906-1 4.832-3.7266 4.832-6.7852 0-3.9531-3.2188-7.1719-7.1758-7.1719-2.0508 0-4.0039 0.88281-5.3672 2.418-0.42969 0.48438-1.1719 0.52734-1.6523 0.10156-0.48828-0.42969-0.53125-1.168-0.10156-1.6523zm-5.7266-13.406c-0.32422-0.55859-0.13281-1.2773 0.42969-1.5977 0.5625-0.32422 1.2773-0.13281 1.6016 0.42969l2.707 4.6836c0.45312 0.78906-0.125 1.7578-1.0156 1.7578-0.40625 0-0.79688-0.21094-1.0156-0.58594zm-9.4336 8.2617c0.32422-0.5625 1.0391-0.75391 1.6016-0.42969l4.6836 2.7031c1.0391 0.59766 0.60156 2.1836-0.58594 2.1836-0.19922 0-0.39844-0.050781-0.58594-0.15625l-4.6836-2.7031c-0.5625-0.32031-0.75391-1.0352-0.42969-1.5977zm-3.6094 13.473c0-0.64453 0.52344-1.1719 1.1719-1.1719h5.4102c0.64844 0 1.1719 0.52734 1.1719 1.1719 0 0.64453-0.52344 1.1719-1.1719 1.1719h-5.4102c-0.64844-0.003906-1.1719-0.52734-1.1719-1.1719zm47.301-1.1719h5.4102c0.64453 0 1.1719 0.52734 1.1719 1.1719 0 0.64453-0.52734 1.1719-1.1719 1.1719h-5.4102c-0.64453 0-1.1719-0.52344-1.1719-1.1719 0.003906-0.64844 0.52734-1.1719 1.1719-1.1719zm-3.7383-8.4258c-0.32422-0.55859-0.13281-1.2773 0.42969-1.5977l4.6836-2.7031c0.55859-0.32422 1.2773-0.13281 1.5977 0.42969 0.32422 0.55859 0.13281 1.2773-0.42969 1.5977l-4.6836 2.7031c-0.55469 0.32031-1.2734 0.13672-1.5977-0.42969zm-7.4531-8.6211 2.7031-4.6836c0.32422-0.5625 1.0391-0.75391 1.5977-0.42969 0.5625 0.32422 0.75391 1.0391 0.42969 1.5977l-2.7031 4.6836c-0.32812 0.56641-1.043 0.75-1.5977 0.42969-0.5625-0.32422-0.75391-1.0391-0.42969-1.5977zm1.7188 54.523-8.6875-12.93h26.062l8.8867 12.93zm16.816 19.785v-17.441h-17.441c-0.39062 0-0.75391-0.19531-0.97266-0.51953l-8.1172-12.082v30.777h25.793c0.39844 0.003906 0.73828-0.33594 0.73828-0.73438zm-54.668 0.73828c-0.39844 0-0.73828-0.33984-0.73828-0.73828v-17.441h17.441c0.39062 0 0.75391-0.19531 0.97266-0.51953l8.1172-12.082v30.777zm-1.293-33.449-8.8906 12.93h26.262l8.6875-12.93zm68.598 13.438-10.5-15.273c-0.21875-0.32031-0.57812-0.50781-0.96484-0.50781h-57.75c-0.38281 0-0.74609 0.1875-0.96484 0.50781l-10.496 15.273c-0.53125 0.77344 0.023438 1.8359 0.96484 1.8359h9.3281v17.441c0 1.6992 1.3828 3.082 3.082 3.082h53.93c1.6992 0 3.0781-1.3828 3.0781-3.082l-0.003906-17.445h9.3281c0.94141 0 1.5-1.0625 0.96875-1.832z" fill="#00acb4" fill-rule="evenodd"/>
</svg>
