<?xml version="1.0" encoding="UTF-8"?>
<svg width="128pt" height="128pt" version="1.1" viewBox="0 0 128 128" xmlns="http://www.w3.org/2000/svg">
 <g fill="#fff">
  <path d="m112.56 27.359c-0.98828-0.45312-2.0781-0.69141-3.2266-0.69141h-90.664c-1.1484 0-2.2383 0.26562-3.2266 0.69141l48.559 43.707z"/>
  <path d="m65.785 76.641c-0.50781 0.45312-1.1484 0.69141-1.7852 0.69141-0.64062 0-1.2812-0.23828-1.7852-0.69141l-50.641-45.574c-0.55859 1.0938-0.90625 2.293-0.90625 3.6016v58.668c0 4.3984 3.6016 8 8 8l90.664-0.003907c4.3984 0 8-3.6016 8-8v-58.664c0-1.3086-0.34766-2.5078-0.90625-3.6016z"/>
 </g>
</svg>
