<?xml version="1.0" encoding="UTF-8"?>
<svg width="128pt" height="128pt" version="1.1" viewBox="0 0 128 128" xmlns="http://www.w3.org/2000/svg">
 <path d="m25.012 6c-4.9492 0-8.9922 4.0469-8.9922 8.9961v98.008c0 4.9492 4.043 8.9961 8.9922 8.9961h77.973c4.9492 0 8.9922-4.0469 8.9922-8.9961v-76.953c0.027344-0.5625-0.18359-1.1133-0.58594-1.5117l-0.003906-0.007812-27.945-27.945s0-0.003907-0.003906-0.003907c-0.17578-0.16797-0.37891-0.30469-0.60547-0.40234-0.027343-0.011719-0.054687-0.023438-0.085937-0.035157-0.21484-0.085937-0.44531-0.13281-0.67969-0.13672-0.011718-0.003906-0.027344-0.007812-0.039062-0.007812zm0 4h55.016v18.949c0 4.9492 4.043 9.0078 8.9922 9.0078h18.957v75.047c0 2.8008-2.1914 4.9961-4.9922 4.9961h-77.973c-2.8008 0-4.9922-2.1953-4.9922-4.9961v-98.008c0-2.8008 2.1914-4.9961 4.9922-4.9961zm59.016 2.8281 21.125 21.129h-16.133c-2.8008 0-4.9922-2.207-4.9922-5.0078zm-31.27 11.148c-6.2891 0-11.426 5.1523-11.426 11.441 0 3.5742 1.6602 6.7773 4.2461 8.875-5.3828 2.3047-9.4102 7.1211-10.551 12.988-0.10156 0.51953 0.007812 1.0625 0.30469 1.5 0.29297 0.44141 0.75391 0.74609 1.2734 0.84766 0.51953 0.10156 1.0625-0.007812 1.5-0.30078 0.44141-0.29688 0.74609-0.75781 0.84766-1.2773 1.2188-6.2734 6.6719-11.027 13.395-11.215 0.13672 0.003906 0.27344 0.007812 0.41016 0.007812 0.13672 0 0.27344-0.003906 0.41016-0.007812 6.7266 0.1875 12.191 4.9375 13.41 11.215 0.20703 1.082 1.25 1.7969 2.332 1.5938 0.51953-0.10156 0.98047-0.40625 1.2773-0.84766 0.29297-0.4375 0.40234-0.98047 0.30078-1.5-1.1367-5.8711-5.1641-10.695-10.551-13.004 2.5859-2.0977 4.25-5.3008 4.25-8.875 0-6.2891-5.1406-11.441-11.43-11.441zm0 4c4.125 0 7.4258 3.3125 7.4258 7.4414 0 3.9844-3.0703 7.1914-6.9922 7.4141-0.14453-0.003906-0.28906-0.003906-0.43359-0.003906-0.14453 0-0.28906 0-0.43359 0.003906-3.9219-0.22266-6.9922-3.4297-6.9922-7.4141 0-4.1289 3.3008-7.4414 7.4258-7.4414zm-15.766 41.781c-0.53125 0-1.043 0.21094-1.4219 0.58594-0.375 0.37891-0.58594 0.89062-0.58594 1.4219 0.003906 0.53125 0.21484 1.0391 0.59375 1.4141 0.375 0.37109 0.88281 0.58203 1.4141 0.57812h54.02c1.0977-0.003906 1.9883-0.89453 1.9922-1.9922 0.003906-0.53125-0.20703-1.0391-0.57812-1.4141-0.375-0.37891-0.88281-0.58984-1.4141-0.59375zm0 15.133c-0.53125 0-1.0391 0.20703-1.4141 0.58203-0.37891 0.37109-0.58984 0.87891-0.59375 1.4102 0 0.53516 0.21094 1.0469 0.58594 1.4219 0.37891 0.37891 0.89063 0.58984 1.4219 0.58594h54.02c0.53125 0 1.0391-0.21484 1.4141-0.58984 0.37109-0.37891 0.58203-0.88672 0.57812-1.418-0.003906-1.0977-0.89453-1.9883-1.9922-1.9922zm0 15.133c-0.53125 0-1.0391 0.20703-1.4141 0.58203-0.37891 0.37109-0.58984 0.87891-0.59375 1.4102 0 0.53516 0.21094 1.0469 0.58594 1.4219 0.37891 0.37891 0.89063 0.58984 1.4219 0.58594h54.02c0.53125 0 1.0391-0.21484 1.4141-0.58984 0.37109-0.37891 0.58203-0.88672 0.57812-1.418-0.003906-1.0977-0.89453-1.9883-1.9922-1.9922z" fill="#fff" fill-rule="evenodd"/>
</svg>
