<?xml version="1.0" encoding="UTF-8"?>
<svg width="100pt" height="100pt" version="1.1" viewBox="0 0 100 100" xmlns="http://www.w3.org/2000/svg">
 <path d="m65.461 63.488c-0.43359 1.3086-1.6523 2.1367-2.9609 2.1367-0.32812 0-0.66406-0.054688-0.98828-0.16016l-9.6484-3.2148c-2.9805-0.99219-4.9844-3.7695-4.9844-6.918v-9.4961c0-1.7266 1.3984-3.125 3.125-3.125 1.7266 0 3.125 1.3984 3.125 3.125v9.4961c0 0.44531 0.28516 0.84766 0.70703 0.98438l9.6523 3.2148c1.6367 0.55078 2.5195 2.3203 1.9766 3.9531zm16.828-5.1523c0 17.805-14.488 32.293-32.293 32.293-17.805 0-32.293-14.488-32.293-32.293 0-16.75 12.82-30.555 29.168-32.133v-6.4102h-5.207c-1.7266 0-3.125-1.3984-3.125-3.125 0-1.7266 1.3984-3.125 3.125-3.125h16.668c1.7266 0 3.125 1.3984 3.125 3.125 0 1.7266-1.3984 3.125-3.125 3.125h-5.207v6.4102c16.348 1.5781 29.168 15.383 29.168 32.133zm-6.25 0c0-14.359-11.684-26.043-26.043-26.043s-26.043 11.684-26.043 26.043c0 14.359 11.684 26.043 26.043 26.043s26.043-11.684 26.043-26.043z" fill="#fff"/>
</svg>
